<svg xmlns="http://www.w3.org/2000/svg" viewBox="0 0 800 550" width="800" height="550">
    <!-- Background -->
    <rect x="0" y="0" width="800" height="550" fill="#1e293b" rx="10" ry="10" />
    
    <!-- Command Interface -->
    <rect x="300" y="80" width="200" height="60" rx="5" fill="#3b82f6" stroke="#fff" stroke-width="2" stroke-dasharray="5,5" />
    <text x="400" y="120" font-family="Arial, sans-serif" font-size="18" text-anchor="middle" fill="white">Command</text>
    
    <!-- Command Methods -->
    <rect x="300" y="140" width="200" height="60" rx="5" fill="#334155" />
    <text x="320" y="165" font-family="Arial, sans-serif" font-size="14" fill="white">+ execute()</text>
    <text x="320" y="190" font-family="Arial, sans-serif" font-size="14" fill="white">+ undo()</text>
    
    <!-- Concrete Command -->
    <rect x="300" y="250" width="200" height="60" rx="5" fill="#10b981" />
    <text x="400" y="290" font-family="Arial, sans-serif" font-size="18" text-anchor="middle" fill="white">ConcreteCommand</text>
    
    <!-- Concrete Command Methods -->
    <rect x="300" y="310" width="200" height="80" rx="5" fill="#334155" />
    <text x="320" y="335" font-family="Arial, sans-serif" font-size="14" fill="white">+ execute()</text>
    <text x="320" y="360" font-family="Arial, sans-serif" font-size="14" fill="white">+ undo()</text>
    <text x="320" y="385" font-family="Arial, sans-serif" font-size="14" fill="white">- receiver: Receiver</text>
    
    <!-- Receiver -->
    <rect x="600" y="250" width="180" height="60" rx="5" fill="#8b5cf6" />
    <text x="690" y="290" font-family="Arial, sans-serif" font-size="18" text-anchor="middle" fill="white">Receiver</text>
    
    <!-- Receiver Methods -->
    <rect x="600" y="310" width="180" height="50" rx="5" fill="#334155" />
    <text x="620" y="340" font-family="Arial, sans-serif" font-size="14" fill="white">+ action()</text>
    
    <!-- Invoker -->
    <rect x="20" y="250" width="180" height="60" rx="5" fill="#ec4899" />
    <text x="110" y="290" font-family="Arial, sans-serif" font-size="18" text-anchor="middle" fill="white">Invoker</text>
    
    <!-- Invoker Fields -->
    <rect x="20" y="310" width="180" height="50" rx="5" fill="#334155" />
    <text x="40" y="340" font-family="Arial, sans-serif" font-size="14" fill="white">- command: Command</text>
    
    <!-- Client -->
    <rect x="300" y="450" width="200" height="60" rx="5" fill="#f97316" />
    <text x="400" y="490" font-family="Arial, sans-serif" font-size="18" text-anchor="middle" fill="white">Client</text>
    
    <!-- Inheritance Line -->
    <path d="M400 200 L400 250" stroke="#ffffff" stroke-width="2" marker-end="url(#arrowhead)" />
    
    <!-- Relationship Lines -->
    <!-- Invoker to Command association -->
    <path d="M200 280 L300 280" stroke="#ffffff" stroke-width="2" marker-end="url(#arrowhead)" />
    <text x="250" y="265" font-family="Arial, sans-serif" font-size="14" text-anchor="middle" fill="white">uses</text>
    
    <!-- ConcreteCommand to Receiver association -->
    <path d="M500 350 L600 350" stroke="#ffffff" stroke-width="2" marker-end="url(#arrowhead)" />
    <text x="550" y="335" font-family="Arial, sans-serif" font-size="14" text-anchor="middle" fill="white">calls</text>
    
    <!-- Client to Concrete Command creation -->
    <path d="M400 450 L400 390" stroke="#ffffff" stroke-width="2" marker-end="url(#arrowhead)" stroke-dasharray="5,5" />
    <text x="420" y="420" font-family="Arial, sans-serif" font-size="14" fill="white">creates</text>
    
    <!-- Client to Receiver creation -->
    <path d="M435 450 C500 420, 600 420, 690 360" stroke="#ffffff" stroke-width="2" marker-end="url(#arrowhead)" stroke-dasharray="5,5" />
    <text x="550" y="420" font-family="Arial, sans-serif" font-size="14" fill="white">creates</text>
    
    <!-- Client to Invoker association -->
    <path d="M365 450 C300 420, 200 420, 100 360" stroke="#ffffff" stroke-width="2" marker-end="url(#arrowhead)" stroke-dasharray="5,5" />
    <text x="200" y="420" font-family="Arial, sans-serif" font-size="14" fill="white">configures</text>
    
    <!-- Execution flow -->
    <path d="M120 310 C120 400, 160 430, 200 430" stroke="#f97316" stroke-width="2" marker-end="url(#arrowhead)" />
    <path d="M400 350 C400 400, 480 430, 550 430" stroke="#f97316" stroke-width="2" marker-end="url(#arrowhead)" />
    <path d="M650 360 C650 400, 630 430, 600 430" stroke="#f97316" stroke-width="2" marker-end="url(#arrowhead)" />
    <text x="400" y="430" font-family="Arial, sans-serif" font-size="14" text-anchor="middle" fill="#f97316">execution flow</text>
    
    <!-- Arrowhead marker -->
    <defs>
        <marker id="arrowhead" markerWidth="10" markerHeight="7" refX="10" refY="3.5" orient="auto">
            <polygon points="0 0, 10 3.5, 0 7" fill="#ffffff" />
        </marker>
    </defs>
    
    <!-- Labels -->
    <text x="400" y="40" font-family="Arial, sans-serif" font-size="24" text-anchor="middle" fill="white">Command Pattern</text>
</svg> 