<svg xmlns="http://www.w3.org/2000/svg" viewBox="0 0 800 550" width="800" height="550">
    <!-- Definitions for reusable elements -->
    <defs>
        <!-- Gradients -->
        <linearGradient id="interfaceGradient" x1="0%" y1="0%" x2="0%" y2="100%">
            <stop offset="0%" stop-color="#4f46e5" />
            <stop offset="100%" stop-color="#3730a3" />
        </linearGradient>
        <linearGradient id="concreteGradient" x1="0%" y1="0%" x2="0%" y2="100%">
            <stop offset="0%" stop-color="#10b981" />
            <stop offset="100%" stop-color="#059669" />
        </linearGradient>
        <linearGradient id="receiverGradient" x1="0%" y1="0%" x2="0%" y2="100%">
            <stop offset="0%" stop-color="#8b5cf6" />
            <stop offset="100%" stop-color="#7e22ce" />
        </linearGradient>
        <linearGradient id="invokerGradient" x1="0%" y1="0%" x2="0%" y2="100%">
            <stop offset="0%" stop-color="#ec4899" />
            <stop offset="100%" stop-color="#db2777" />
        </linearGradient>
        <linearGradient id="clientGradient" x1="0%" y1="0%" x2="0%" y2="100%">
            <stop offset="0%" stop-color="#f97316" />
            <stop offset="100%" stop-color="#ea580c" />
        </linearGradient>
        <linearGradient id="methodGradient" x1="0%" y1="0%" x2="0%" y2="100%">
            <stop offset="0%" stop-color="#2d3748" />
            <stop offset="100%" stop-color="#1e293b" />
        </linearGradient>
        <linearGradient id="flowGradient" x1="0%" y1="0%" x2="100%" y2="100%">
            <stop offset="0%" stop-color="#f97316" />
            <stop offset="100%" stop-color="#fb923c" />
        </linearGradient>
        <linearGradient id="bgGradient" x1="0%" y1="0%" x2="100%" y2="100%">
            <stop offset="0%" stop-color="#0f172a" />
            <stop offset="100%" stop-color="#1e293b" />
        </linearGradient>
        
        <!-- Drop shadows -->
        <filter id="dropShadow" x="-20%" y="-20%" width="140%" height="140%">
            <feDropShadow dx="2" dy="2" stdDeviation="3" flood-opacity="0.3" />
        </filter>
        
        <!-- Glow effect -->
        <filter id="glow" x="-50%" y="-50%" width="200%" height="200%">
            <feGaussianBlur stdDeviation="2" result="blur" />
            <feComposite in="SourceGraphic" in2="blur" operator="over" />
        </filter>
        
        <!-- Arrowhead markers -->
        <marker id="arrowhead" markerWidth="10" markerHeight="7" refX="10" refY="3.5" orient="auto">
            <polygon points="0 0, 10 3.5, 0 7" fill="#ffffff" />
        </marker>
        <marker id="flowArrow" markerWidth="10" markerHeight="7" refX="10" refY="3.5" orient="auto">
            <polygon points="0 0, 10 3.5, 0 7" fill="#f97316" />
        </marker>
    </defs>
    
    <!-- Background -->
    <rect x="0" y="0" width="800" height="550" fill="url(#bgGradient)" rx="15" ry="15" />
    
    <!-- Title -->
    <text x="400" y="40" font-family="'Segoe UI', Arial, sans-serif" font-size="24" font-weight="600" text-anchor="middle" fill="white">Command Design Pattern</text>
    
    <!-- Command Interface -->
    <rect x="300" y="80" width="200" height="60" rx="8" fill="url(#interfaceGradient)" stroke="#fff" stroke-width="2" stroke-dasharray="5,5" filter="url(#dropShadow)" />
    <text x="400" y="105" font-family="'Segoe UI', Arial, sans-serif" font-size="14" font-weight="500" text-anchor="middle" fill="white">«interface»</text>
    <text x="400" y="130" font-family="'Segoe UI', Arial, sans-serif" font-size="18" font-weight="600" text-anchor="middle" fill="white">Command</text>
    
    <!-- Command Methods -->
    <rect x="300" y="140" width="200" height="60" rx="5" fill="url(#methodGradient)" filter="url(#dropShadow)" />
    <text x="320" y="165" font-family="'Segoe UI', Arial, sans-serif" font-size="14" fill="white">+ execute()</text>
    <text x="320" y="190" font-family="'Segoe UI', Arial, sans-serif" font-size="14" fill="white">+ undo()</text>
    
    <!-- Concrete Command -->
    <rect x="300" y="250" width="200" height="60" rx="8" fill="url(#concreteGradient)" filter="url(#dropShadow)" />
    <text x="400" y="290" font-family="'Segoe UI', Arial, sans-serif" font-size="18" font-weight="600" text-anchor="middle" fill="white">ConcreteCommand</text>
    
    <!-- Concrete Command Methods -->
    <rect x="300" y="310" width="200" height="80" rx="5" fill="url(#methodGradient)" filter="url(#dropShadow)" />
    <text x="320" y="335" font-family="'Segoe UI', Arial, sans-serif" font-size="14" fill="white">+ execute()</text>
    <text x="320" y="360" font-family="'Segoe UI', Arial, sans-serif" font-size="14" fill="white">+ undo()</text>
    <text x="320" y="385" font-family="'Segoe UI', Arial, sans-serif" font-size="14" fill="white">- receiver: Receiver</text>
    
    <!-- Receiver -->
    <rect x="600" y="250" width="180" height="60" rx="8" fill="url(#receiverGradient)" filter="url(#dropShadow)" />
    <text x="690" y="290" font-family="'Segoe UI', Arial, sans-serif" font-size="18" font-weight="600" text-anchor="middle" fill="white">Receiver</text>
    
    <!-- Receiver Methods -->
    <rect x="600" y="310" width="180" height="50" rx="5" fill="url(#methodGradient)" filter="url(#dropShadow)" />
    <text x="620" y="340" font-family="'Segoe UI', Arial, sans-serif" font-size="14" fill="white">+ action()</text>
    
    <!-- Invoker -->
    <rect x="20" y="250" width="180" height="60" rx="8" fill="url(#invokerGradient)" filter="url(#dropShadow)" />
    <text x="110" y="290" font-family="'Segoe UI', Arial, sans-serif" font-size="18" font-weight="600" text-anchor="middle" fill="white">Invoker</text>
    
    <!-- Invoker Fields -->
    <rect x="20" y="310" width="180" height="50" rx="5" fill="url(#methodGradient)" filter="url(#dropShadow)" />
    <text x="40" y="340" font-family="'Segoe UI', Arial, sans-serif" font-size="14" fill="white">- command: Command</text>
    
    <!-- Client -->
    <rect x="300" y="450" width="200" height="60" rx="8" fill="url(#clientGradient)" filter="url(#dropShadow)" />
    <text x="400" y="490" font-family="'Segoe UI', Arial, sans-serif" font-size="18" font-weight="600" text-anchor="middle" fill="white">Client</text>
    
    <!-- Inheritance Line -->
    <path d="M400 200 L400 250" stroke="#ffffff" stroke-width="2" marker-end="url(#arrowhead)" filter="url(#glow)" />
    
    <!-- Relationship Lines -->
    <!-- Invoker to Command association -->
    <path d="M200 280 L300 280" stroke="#ffffff" stroke-width="2" marker-end="url(#arrowhead)" filter="url(#glow)" />
    <rect x="230" y="245" width="50" height="22" rx="11" fill="#334155" fill-opacity="0.8" />
    <text x="255" y="260" font-family="'Segoe UI', Arial, sans-serif" font-size="14" text-anchor="middle" fill="white">uses</text>
    
    <!-- ConcreteCommand to Receiver association -->
    <path d="M500 350 L600 350" stroke="#ffffff" stroke-width="2" marker-end="url(#arrowhead)" filter="url(#glow)" />
    <rect x="530" y="315" width="50" height="22" rx="11" fill="#334155" fill-opacity="0.8" />
    <text x="555" y="330" font-family="'Segoe UI', Arial, sans-serif" font-size="14" text-anchor="middle" fill="white">calls</text>
    
    <!-- Client to Concrete Command creation -->
    <path d="M400 450 L400 390" stroke="#ffffff" stroke-width="2" marker-end="url(#arrowhead)" stroke-dasharray="5,5" />
    <rect x="410" y="410" width="70" height="22" rx="11" fill="#334155" fill-opacity="0.8" />
    <text x="445" y="425" font-family="'Segoe UI', Arial, sans-serif" font-size="14" fill="white">creates</text>
    
    <!-- Client to Receiver creation -->
    <path d="M435 450 C500 420, 600 420, 690 360" stroke="#ffffff" stroke-width="2" marker-end="url(#arrowhead)" stroke-dasharray="5,5" />
    <rect x="540" y="405" width="70" height="22" rx="11" fill="#334155" fill-opacity="0.8" />
    <text x="575" y="420" font-family="'Segoe UI', Arial, sans-serif" font-size="14" fill="white">creates</text>
    
    <!-- Client to Invoker association -->
    <path d="M365 450 C300 420, 200 420, 100 360" stroke="#ffffff" stroke-width="2" marker-end="url(#arrowhead)" stroke-dasharray="5,5" />
    <rect x="180" y="405" width="90" height="22" rx="11" fill="#334155" fill-opacity="0.8" />
    <text x="225" y="420" font-family="'Segoe UI', Arial, sans-serif" font-size="14" fill="white">configures</text>
    
    <!-- Execution flow -->
    <path d="M120 310 C120 400, 160 430, 200 430" stroke="url(#flowGradient)" stroke-width="2.5" marker-end="url(#flowArrow)" filter="url(#glow)" />
    <path d="M400 350 C400 400, 480 430, 550 430" stroke="url(#flowGradient)" stroke-width="2.5" marker-end="url(#flowArrow)" filter="url(#glow)" />
    <path d="M650 360 C650 400, 630 430, 600 430" stroke="url(#flowGradient)" stroke-width="2.5" marker-end="url(#flowArrow)" filter="url(#glow)" />
    <rect x="340" y="415" width="120" height="22" rx="11" fill="#334155" fill-opacity="0.8" />
    <text x="400" y="430" font-family="'Segoe UI', Arial, sans-serif" font-size="14" text-anchor="middle" fill="#f97316" font-weight="600">execution flow</text>
</svg> 