<?xml version="1.0" encoding="UTF-8"?>
<svg width="800" height="500" xmlns="http://www.w3.org/2000/svg">
    <!-- Background -->
    <rect width="800" height="500" fill="#1e293b" rx="8" ry="8"/>

    <!-- Arrow marker definition -->
    <defs>
        <marker id="arrowhead" markerWidth="10" markerHeight="7" refX="9" refY="3.5" orient="auto">
            <polygon points="0 0, 10 3.5, 0 7" fill="#94a3b8"/>
        </marker>
        <marker id="relationship-arrowhead" markerWidth="10" markerHeight="7" refX="9" refY="3.5" orient="auto">
            <polygon points="0 0, 10 3.5, 0 7" fill="#10b981"/>
        </marker>
        <marker id="inheritance-arrowhead" markerWidth="10" markerHeight="7" refX="0" refY="3.5" orient="auto">
            <polygon points="10 0, 0 3.5, 10 7" fill="#94a3b8"/>
        </marker>
    </defs>

    <!-- Iterator Interface -->
    <rect x="100" y="50" width="220" height="120" fill="#334155" stroke="#3b82f6" stroke-width="2" rx="8" ry="8"/>
    <text x="210" y="80" font-family="Arial" font-size="16" fill="#ffffff" text-anchor="middle" font-weight="bold">«interface»</text>
    <text x="210" y="100" font-family="Arial" font-size="16" fill="#ffffff" text-anchor="middle" font-weight="bold">Iterator</text>
    <line x1="100" y1="110" x2="320" y2="110" stroke="#3b82f6" stroke-width="2"/>
    
    <!-- Methods in Iterator -->
    <text x="120" y="135" font-family="Arial" font-size="14" fill="#60a5fa">+ hasNext(): boolean</text>
    <text x="120" y="155" font-family="Arial" font-size="14" fill="#60a5fa">+ next(): Object</text>

    <!-- Concrete Iterator -->
    <rect x="100" y="250" width="220" height="140" fill="#334155" stroke="#10b981" stroke-width="2" rx="8" ry="8"/>
    <text x="210" y="280" font-family="Arial" font-size="16" fill="#ffffff" text-anchor="middle" font-weight="bold">ConcreteIterator</text>
    <line x1="100" y1="290" x2="320" y2="290" stroke="#10b981" stroke-width="2"/>
    
    <!-- Fields and Methods in Concrete Iterator -->
    <text x="120" y="315" font-family="Arial" font-size="14" fill="#10b981">- collection: Collection</text>
    <text x="120" y="335" font-family="Arial" font-size="14" fill="#10b981">- currentIndex: int</text>
    <line x1="120" y1="345" x2="300" y2="345" stroke="#10b981" stroke-width="1" stroke-dasharray="2"/>
    <text x="120" y="365" font-family="Arial" font-size="14" fill="#10b981">+ hasNext(): boolean</text>
    <text x="120" y="385" font-family="Arial" font-size="14" fill="#10b981">+ next(): Object</text>

    <!-- Aggregate Interface -->
    <rect x="480" y="50" width="220" height="120" fill="#334155" stroke="#3b82f6" stroke-width="2" rx="8" ry="8"/>
    <text x="590" y="80" font-family="Arial" font-size="16" fill="#ffffff" text-anchor="middle" font-weight="bold">«interface»</text>
    <text x="590" y="100" font-family="Arial" font-size="16" fill="#ffffff" text-anchor="middle" font-weight="bold">Aggregate</text>
    <line x1="480" y1="110" x2="700" y2="110" stroke="#3b82f6" stroke-width="2"/>
    
    <!-- Methods in Aggregate -->
    <text x="500" y="135" font-family="Arial" font-size="14" fill="#60a5fa">+ createIterator(): Iterator</text>

    <!-- Concrete Aggregate -->
    <rect x="480" y="250" width="220" height="140" fill="#334155" stroke="#10b981" stroke-width="2" rx="8" ry="8"/>
    <text x="590" y="280" font-family="Arial" font-size="16" fill="#ffffff" text-anchor="middle" font-weight="bold">ConcreteAggregate</text>
    <line x1="480" y1="290" x2="700" y2="290" stroke="#10b981" stroke-width="2"/>
    
    <!-- Fields and Methods in Concrete Aggregate -->
    <text x="500" y="315" font-family="Arial" font-size="14" fill="#10b981">- items: Object[]</text>
    <line x1="500" y1="325" x2="680" y2="325" stroke="#10b981" stroke-width="1" stroke-dasharray="2"/>
    <text x="500" y="345" font-family="Arial" font-size="14" fill="#10b981">+ createIterator(): Iterator</text>
    <text x="500" y="365" font-family="Arial" font-size="14" fill="#10b981">+ other methods...</text>

    <!-- Client Box -->
    <rect x="290" y="420" width="220" height="50" fill="#334155" stroke="#8b5cf6" stroke-width="2" rx="8" ry="8"/>
    <text x="400" y="450" font-family="Arial" font-size="16" fill="#ffffff" text-anchor="middle" font-weight="bold">Client</text>

    <!-- Connections between classes -->
    <!-- Implementation arrow from ConcreteIterator to Iterator -->
    <line x1="210" y1="250" x2="210" y2="170" stroke="#94a3b8" stroke-width="2" marker-start="url(#inheritance-arrowhead)"/>
    
    <!-- Implementation arrow from ConcreteAggregate to Aggregate -->
    <line x1="590" y1="250" x2="590" y2="170" stroke="#94a3b8" stroke-width="2" marker-start="url(#inheritance-arrowhead)"/>
    
    <!-- Relationship arrow from ConcreteAggregate to ConcreteIterator -->
    <line x1="480" y1="320" x2="320" y2="320" stroke="#10b981" stroke-width="2" marker-end="url(#relationship-arrowhead)"/>
    <text x="400" y="310" font-family="Arial" font-size="12" fill="#10b981" text-anchor="middle">creates</text>

    <!-- Client usage arrows -->
    <line x1="400" y1="420" x2="400" y2="320" stroke="#8b5cf6" stroke-width="2" marker-end="url(#arrowhead)" stroke-dasharray="5,5"/>
    <line x1="400" y1="420" x2="210" y2="360" stroke="#8b5cf6" stroke-width="2" marker-end="url(#arrowhead)" stroke-dasharray="5,5"/>
    <text x="280" y="380" font-family="Arial" font-size="12" fill="#8b5cf6" text-anchor="middle">uses</text>

    <!-- Iterator Visualization -->
    <rect x="40" y="150" width="720" height="60" fill="#334155" stroke="#3b82f6" stroke-width="1" rx="8" ry="8" fill-opacity="0.3"/>
    
    <!-- Collection elements -->
    <rect x="100" y="170" width="40" height="40" fill="#10b981" stroke="#334155" stroke-width="1" rx="5" ry="5" fill-opacity="0.7"/>
    <text x="120" y="195" font-family="Arial" font-size="14" fill="#ffffff" text-anchor="middle">1</text>
    
    <rect x="150" y="170" width="40" height="40" fill="#10b981" stroke="#334155" stroke-width="1" rx="5" ry="5" fill-opacity="0.7"/>
    <text x="170" y="195" font-family="Arial" font-size="14" fill="#ffffff" text-anchor="middle">2</text>
    
    <rect x="200" y="170" width="40" height="40" fill="#10b981" stroke="#334155" stroke-width="1" rx="5" ry="5" fill-opacity="0.7"/>
    <text x="220" y="195" font-family="Arial" font-size="14" fill="#ffffff" text-anchor="middle">3</text>
    
    <rect x="250" y="170" width="40" height="40" fill="#10b981" stroke="#334155" stroke-width="1" rx="5" ry="5" fill-opacity="0.7"/>
    <text x="270" y="195" font-family="Arial" font-size="14" fill="#ffffff" text-anchor="middle">4</text>

    <rect x="300" y="170" width="40" height="40" fill="#10b981" stroke="#334155" stroke-width="1" rx="5" ry="5" fill-opacity="0.7"/>
    <text x="320" y="195" font-family="Arial" font-size="14" fill="#ffffff" text-anchor="middle">5</text>

    <!-- Current position indicator -->
    <polygon points="220,150 230,160 210,160" fill="#ef4444"/>
    <text x="220" y="145" font-family="Arial" font-size="10" fill="#ffffff" text-anchor="middle">current</text>

    <!-- Notes -->
    <rect x="80" y="450" width="640" height="30" fill="#334155" stroke="#60a5fa" stroke-width="1" rx="8" ry="8" stroke-dasharray="5,5"/>
    <text x="400" y="470" font-family="Arial" font-size="14" fill="#ffffff" text-anchor="middle" font-style="italic">
        The Iterator pattern provides sequential access to elements without exposing the underlying structure
    </text>
</svg> 