<?xml version="1.0" encoding="UTF-8"?>
<svg width="800" height="500" xmlns="http://www.w3.org/2000/svg">
    <!-- Background -->
    <rect width="800" height="500" fill="#1e293b" rx="8" ry="8"/>

    <!-- Arrow marker definition -->
    <defs>
        <marker id="arrowhead" markerWidth="10" markerHeight="7" refX="9" refY="3.5" orient="auto">
            <polygon points="0 0, 10 3.5, 0 7" fill="#94a3b8"/>
        </marker>
        <marker id="relationship-arrowhead" markerWidth="10" markerHeight="7" refX="9" refY="3.5" orient="auto">
            <polygon points="0 0, 10 3.5, 0 7" fill="#10b981"/>
        </marker>
        <marker id="inheritance-arrowhead" markerWidth="10" markerHeight="7" refX="0" refY="3.5" orient="auto">
            <polygon points="10 0, 0 3.5, 10 7" fill="#94a3b8"/>
        </marker>
    </defs>

    <!-- Mediator Interface -->
    <rect x="300" y="50" width="200" height="100" fill="#334155" stroke="#3b82f6" stroke-width="2" rx="8" ry="8"/>
    <text x="400" y="80" font-family="Arial" font-size="16" fill="#ffffff" text-anchor="middle" font-weight="bold">«interface»</text>
    <text x="400" y="100" font-family="Arial" font-size="16" fill="#ffffff" text-anchor="middle" font-weight="bold">Mediator</text>
    <line x1="300" y1="110" x2="500" y2="110" stroke="#3b82f6" stroke-width="2"/>
    
    <!-- Methods in Mediator -->
    <text x="320" y="135" font-family="Arial" font-size="14" fill="#60a5fa">+ notify(sender, event): void</text>

    <!-- Concrete Mediator -->
    <rect x="300" y="200" width="200" height="100" fill="#334155" stroke="#10b981" stroke-width="2" rx="8" ry="8"/>
    <text x="400" y="230" font-family="Arial" font-size="16" fill="#ffffff" text-anchor="middle" font-weight="bold">ConcreteMediator</text>
    <line x1="300" y1="240" x2="500" y2="240" stroke="#10b981" stroke-width="2"/>
    
    <!-- Methods in Concrete Mediator -->
    <text x="320" y="265" font-family="Arial" font-size="14" fill="#10b981">+ notify(sender, event): void</text>
    <text x="320" y="285" font-family="Arial" font-size="14" fill="#10b981">- colleagueObjects: List</text>

    <!-- Colleague Interface -->
    <rect x="600" y="50" width="150" height="100" fill="#334155" stroke="#3b82f6" stroke-width="2" rx="8" ry="8"/>
    <text x="675" y="80" font-family="Arial" font-size="16" fill="#ffffff" text-anchor="middle" font-weight="bold">«interface»</text>
    <text x="675" y="100" font-family="Arial" font-size="16" fill="#ffffff" text-anchor="middle" font-weight="bold">Colleague</text>
    <line x1="600" y1="110" x2="750" y2="110" stroke="#3b82f6" stroke-width="2"/>
    
    <!-- Methods in Colleague -->
    <text x="615" y="135" font-family="Arial" font-size="14" fill="#60a5fa">+ setMediator(m): void</text>

    <!-- Concrete Colleagues -->
    <rect x="100" y="350" width="180" height="100" fill="#334155" stroke="#10b981" stroke-width="2" rx="8" ry="8"/>
    <text x="190" y="380" font-family="Arial" font-size="16" fill="#ffffff" text-anchor="middle" font-weight="bold">ConcreteColleagueA</text>
    <line x1="100" y1="390" x2="280" y2="390" stroke="#10b981" stroke-width="2"/>
    
    <!-- Methods in ConcreteColleagueA -->
    <text x="120" y="410" font-family="Arial" font-size="14" fill="#10b981">+ setMediator(m): void</text>
    <text x="120" y="430" font-family="Arial" font-size="14" fill="#10b981">+ operationA(): void</text>

    <rect x="310" y="350" width="180" height="100" fill="#334155" stroke="#10b981" stroke-width="2" rx="8" ry="8"/>
    <text x="400" y="380" font-family="Arial" font-size="16" fill="#ffffff" text-anchor="middle" font-weight="bold">ConcreteColleagueB</text>
    <line x1="310" y1="390" x2="490" y2="390" stroke="#10b981" stroke-width="2"/>
    
    <!-- Methods in ConcreteColleagueB -->
    <text x="330" y="410" font-family="Arial" font-size="14" fill="#10b981">+ setMediator(m): void</text>
    <text x="330" y="430" font-family="Arial" font-size="14" fill="#10b981">+ operationB(): void</text>

    <rect x="520" y="350" width="180" height="100" fill="#334155" stroke="#10b981" stroke-width="2" rx="8" ry="8"/>
    <text x="610" y="380" font-family="Arial" font-size="16" fill="#ffffff" text-anchor="middle" font-weight="bold">ConcreteColleagueC</text>
    <line x1="520" y1="390" x2="700" y2="390" stroke="#10b981" stroke-width="2"/>
    
    <!-- Methods in ConcreteColleagueC -->
    <text x="540" y="410" font-family="Arial" font-size="14" fill="#10b981">+ setMediator(m): void</text>
    <text x="540" y="430" font-family="Arial" font-size="14" fill="#10b981">+ operationC(): void</text>

    <!-- Implementation arrows -->
    <line x1="400" y1="200" x2="400" y2="150" stroke="#94a3b8" stroke-width="2" marker-start="url(#inheritance-arrowhead)"/>
    <line x1="190" y1="350" x2="650" y2="150" stroke="#94a3b8" stroke-width="2" marker-start="url(#inheritance-arrowhead)"/>
    <line x1="400" y1="350" x2="675" y2="150" stroke="#94a3b8" stroke-width="2" marker-start="url(#inheritance-arrowhead)"/>
    <line x1="610" y1="350" x2="700" y2="150" stroke="#94a3b8" stroke-width="2" marker-start="url(#inheritance-arrowhead)"/>
    
    <!-- Relationship arrows -->
    <line x1="400" y1="300" x2="400" y2="350" stroke="#10b981" stroke-width="2" marker-end="url(#relationship-arrowhead)"/>
    <line x1="300" y1="250" x2="220" y2="350" stroke="#10b981" stroke-width="2" marker-end="url(#relationship-arrowhead)"/>
    <line x1="500" y1="250" x2="580" y2="350" stroke="#10b981" stroke-width="2" marker-end="url(#relationship-arrowhead)"/>
    
    <!-- Notes -->
    <rect x="70" y="50" width="180" height="100" fill="#334155" stroke="#8b5cf6" stroke-width="1" rx="8" ry="8" stroke-dasharray="5,5"/>
    <text x="160" y="90" font-family="Arial" font-size="12" fill="#ffffff" text-anchor="middle" font-style="italic">
        The Mediator pattern
    </text>
    <text x="160" y="110" font-family="Arial" font-size="12" fill="#ffffff" text-anchor="middle" font-style="italic">
        centralizes complex
    </text>
    <text x="160" y="130" font-family="Arial" font-size="12" fill="#ffffff" text-anchor="middle" font-style="italic">
        communications between
    </text>
    <text x="160" y="150" font-family="Arial" font-size="12" fill="#ffffff" text-anchor="middle" font-style="italic">
        components
    </text>

    <!-- Main explanation -->
    <rect x="80" y="460" width="640" height="30" fill="#334155" stroke="#60a5fa" stroke-width="1" rx="8" ry="8" fill-opacity="0.3"/>
    <text x="400" y="480" font-family="Arial" font-size="14" fill="#ffffff" text-anchor="middle" font-style="italic">
        The Mediator pattern defines an object that centralizes communication between components
    </text>
    
    <!-- Visualization of communication -->
    <path d="M 190,200 Q 250,150 350,170" fill="none" stroke="#ef4444" stroke-width="2" stroke-dasharray="5,5" marker-end="url(#arrowhead)"/>
    <text x="240" y="140" font-family="Arial" font-size="12" fill="#ef4444" text-anchor="middle">notify</text>
    
    <path d="M 600,200 Q 550,150 450,170" fill="none" stroke="#ef4444" stroke-width="2" stroke-dasharray="5,5" marker-end="url(#arrowhead)"/>
    <text x="560" y="140" font-family="Arial" font-size="12" fill="#ef4444" text-anchor="middle">notify</text>
    
    <path d="M 450,270 Q 550,300 600,340" fill="none" stroke="#3b82f6" stroke-width="2" marker-end="url(#arrowhead)"/>
    <text x="530" y="300" font-family="Arial" font-size="12" fill="#3b82f6" text-anchor="middle">update</text>
    
    <path d="M 350,270 Q 250,300 200,340" fill="none" stroke="#3b82f6" stroke-width="2" marker-end="url(#arrowhead)"/>
    <text x="270" y="300" font-family="Arial" font-size="12" fill="#3b82f6" text-anchor="middle">update</text>
</svg> 