<?xml version="1.0" encoding="UTF-8"?>
<svg width="800" height="500" xmlns="http://www.w3.org/2000/svg">
    <!-- Background -->
    <rect width="800" height="500" fill="#1e293b" rx="8" ry="8"/>

    <!-- Arrow marker definition -->
    <defs>
        <marker id="arrowhead" markerWidth="10" markerHeight="7" refX="9" refY="3.5" orient="auto">
            <polygon points="0 0, 10 3.5, 0 7" fill="#94a3b8"/>
        </marker>
        <marker id="relationship-arrowhead" markerWidth="10" markerHeight="7" refX="9" refY="3.5" orient="auto">
            <polygon points="0 0, 10 3.5, 0 7" fill="#10b981"/>
        </marker>
        <marker id="inheritance-arrowhead" markerWidth="10" markerHeight="7" refX="0" refY="3.5" orient="auto">
            <polygon points="10 0, 0 3.5, 10 7" fill="#94a3b8"/>
        </marker>
    </defs>

    <!-- State Interface -->
    <rect x="300" y="50" width="200" height="120" fill="#334155" stroke="#3b82f6" stroke-width="2" rx="8" ry="8"/>
    <text x="400" y="80" font-family="Arial" font-size="16" fill="#ffffff" text-anchor="middle" font-weight="bold">«interface»</text>
    <text x="400" y="100" font-family="Arial" font-size="16" fill="#ffffff" text-anchor="middle" font-weight="bold">State</text>
    <line x1="300" y1="110" x2="500" y2="110" stroke="#3b82f6" stroke-width="2"/>
    
    <!-- Methods in State Interface -->
    <text x="320" y="135" font-family="Arial" font-size="14" fill="#60a5fa">+ handle1(): void</text>
    <text x="320" y="155" font-family="Arial" font-size="14" fill="#60a5fa">+ handle2(): void</text>

    <!-- Context Class -->
    <rect x="50" y="200" width="200" height="140" fill="#334155" stroke="#10b981" stroke-width="2" rx="8" ry="8"/>
    <text x="150" y="230" font-family="Arial" font-size="16" fill="#ffffff" text-anchor="middle" font-weight="bold">Context</text>
    <line x1="50" y1="240" x2="250" y2="240" stroke="#10b981" stroke-width="2"/>
    
    <!-- Fields and Methods in Context -->
    <text x="70" y="265" font-family="Arial" font-size="14" fill="#10b981">- state: State</text>
    <line x1="70" y1="275" x2="230" y2="275" stroke="#10b981" stroke-width="1" stroke-dasharray="2"/>
    <text x="70" y="295" font-family="Arial" font-size="14" fill="#10b981">+ setState(state: State)</text>
    <text x="70" y="315" font-family="Arial" font-size="14" fill="#10b981">+ request1(): void</text>
    <text x="70" y="335" font-family="Arial" font-size="14" fill="#10b981">+ request2(): void</text>

    <!-- ConcreteStateA -->
    <rect x="300" y="200" width="200" height="100" fill="#334155" stroke="#10b981" stroke-width="2" rx="8" ry="8"/>
    <text x="400" y="230" font-family="Arial" font-size="16" fill="#ffffff" text-anchor="middle" font-weight="bold">ConcreteStateA</text>
    <line x1="300" y1="240" x2="500" y2="240" stroke="#10b981" stroke-width="2"/>
    
    <!-- Methods in ConcreteStateA -->
    <text x="320" y="265" font-family="Arial" font-size="14" fill="#10b981">+ handle1(): void</text>
    <text x="320" y="285" font-family="Arial" font-size="14" fill="#10b981">+ handle2(): void</text>

    <!-- ConcreteStateB -->
    <rect x="550" y="200" width="200" height="100" fill="#334155" stroke="#10b981" stroke-width="2" rx="8" ry="8"/>
    <text x="650" y="230" font-family="Arial" font-size="16" fill="#ffffff" text-anchor="middle" font-weight="bold">ConcreteStateB</text>
    <line x1="550" y1="240" x2="750" y2="240" stroke="#10b981" stroke-width="2"/>
    
    <!-- Methods in ConcreteStateB -->
    <text x="570" y="265" font-family="Arial" font-size="14" fill="#10b981">+ handle1(): void</text>
    <text x="570" y="285" font-family="Arial" font-size="14" fill="#10b981">+ handle2(): void</text>

    <!-- Implementation arrows from Concrete States to State interface -->
    <line x1="400" y1="200" x2="400" y2="170" stroke="#94a3b8" stroke-width="2" marker-start="url(#inheritance-arrowhead)"/>
    <line x1="650" y1="200" x2="450" y2="120" stroke="#94a3b8" stroke-width="2" marker-start="url(#inheritance-arrowhead)"/>
    
    <!-- Relationship between Context and State -->
    <line x1="180" y1="200" x2="350" y2="125" stroke="#10b981" stroke-width="2" marker-end="url(#relationship-arrowhead)"/>
    <text x="240" y="145" font-family="Arial" font-size="12" fill="#10b981" text-anchor="middle">uses</text>

    <!-- State Transition Diagram -->
    <rect x="100" y="380" width="600" height="90" fill="#334155" stroke="#3b82f6" stroke-width="2" rx="8" ry="8" opacity="0.7"/>
    
    <!-- State Circles -->
    <circle cx="200" cy="425" r="30" fill="#10b981" opacity="0.8" stroke="#ffffff" stroke-width="2"/>
    <text x="200" y="430" font-family="Arial" font-size="12" fill="#ffffff" text-anchor="middle">State A</text>
    
    <circle cx="600" cy="425" r="30" fill="#10b981" opacity="0.8" stroke="#ffffff" stroke-width="2"/>
    <text x="600" y="430" font-family="Arial" font-size="12" fill="#ffffff" text-anchor="middle">State B</text>
    
    <!-- Transition Arrows -->
    <line x1="230" y1="415" x2="570" y2="415" stroke="#ffffff" stroke-width="2" marker-end="url(#arrowhead)"/>
    <text x="400" y="405" font-family="Arial" font-size="12" fill="#ffffff" text-anchor="middle">event1()</text>
    
    <line x1="570" y1="435" x2="230" y2="435" stroke="#ffffff" stroke-width="2" marker-end="url(#arrowhead)"/>
    <text x="400" y="455" font-family="Arial" font-size="12" fill="#ffffff" text-anchor="middle">event2()</text>

    <!-- Notes -->
    <rect x="100" y="20" width="150" height="60" fill="#334155" stroke="#8b5cf6" stroke-width="1" rx="8" ry="8" stroke-dasharray="5,5"/>
    <text x="175" y="50" font-family="Arial" font-size="12" fill="#ffffff" text-anchor="middle" font-style="italic">
        States encapsulate
    </text>
    <text x="175" y="65" font-family="Arial" font-size="12" fill="#ffffff" text-anchor="middle" font-style="italic">
        behavior for each state
    </text>

    <!-- Main explanation -->
    <rect x="80" y="330" width="640" height="30" fill="#334155" stroke="#60a5fa" stroke-width="1" rx="8" ry="8" fill-opacity="0.3"/>
    <text x="400" y="350" font-family="Arial" font-size="14" fill="#ffffff" text-anchor="middle" font-style="italic">
        The State pattern allows an object to alter its behavior when its internal state changes
    </text>
</svg> 