<svg width="800" height="400" viewBox="0 0 800 400" xmlns="http://www.w3.org/2000/svg">
    <!-- Background -->
    <rect x="0" y="0" width="800" height="400" fill="transparent" />
    
    <!-- Strategy Interface -->
    <rect x="300" y="40" width="200" height="60" rx="5" fill="#3b82f6" stroke="#fff" stroke-width="2" stroke-dasharray="5,5" />
    <text x="400" y="75" font-family="sans-serif" font-size="16" text-anchor="middle" fill="white">Strategy</text>
    
    <!-- Algorithm Method -->
    <rect x="300" y="100" width="200" height="30" rx="5" fill="#334155" />
    <text x="400" y="120" font-family="sans-serif" font-size="14" text-anchor="middle" fill="white">algorithm()</text>
    
    <!-- Concrete Strategies -->
    <rect x="100" y="200" width="180" height="60" rx="5" fill="#10b981" />
    <text x="190" y="235" font-family="sans-serif" font-size="16" text-anchor="middle" fill="white">ConcreteStrategyA</text>
    
    <rect x="310" y="200" width="180" height="60" rx="5" fill="#10b981" />
    <text x="400" y="235" font-family="sans-serif" font-size="16" text-anchor="middle" fill="white">ConcreteStrategyB</text>
    
    <rect x="520" y="200" width="180" height="60" rx="5" fill="#10b981" />
    <text x="610" y="235" font-family="sans-serif" font-size="16" text-anchor="middle" fill="white">ConcreteStrategyC</text>
    
    <!-- Algorithm Methods -->
    <rect x="100" y="260" width="180" height="30" rx="5" fill="#334155" />
    <text x="190" y="280" font-family="sans-serif" font-size="14" text-anchor="middle" fill="white">algorithm()</text>
    
    <rect x="310" y="260" width="180" height="30" rx="5" fill="#334155" />
    <text x="400" y="280" font-family="sans-serif" font-size="14" text-anchor="middle" fill="white">algorithm()</text>
    
    <rect x="520" y="260" width="180" height="30" rx="5" fill="#334155" />
    <text x="610" y="280" font-family="sans-serif" font-size="14" text-anchor="middle" fill="white">algorithm()</text>
    
    <!-- Context -->
    <rect x="590" y="40" width="150" height="60" rx="5" fill="#8b5cf6" />
    <text x="665" y="75" font-family="sans-serif" font-size="16" text-anchor="middle" fill="white">Context</text>
    
    <rect x="590" y="100" width="150" height="30" rx="5" fill="#334155" />
    <text x="665" y="120" font-family="sans-serif" font-size="14" text-anchor="middle" fill="white">strategy.algorithm()</text>
    
    <!-- Inheritance Lines -->
    <path d="M400 130 L190 200" stroke="#ffffff" stroke-width="2" marker-end="url(#arrowhead)" />
    <path d="M400 130 L400 200" stroke="#ffffff" stroke-width="2" marker-end="url(#arrowhead)" />
    <path d="M400 130 L610 200" stroke="#ffffff" stroke-width="2" marker-end="url(#arrowhead)" />
    
    <!-- Context to Strategy Relationship -->
    <path d="M590 70 L500 70" stroke="#ffffff" stroke-width="2" marker-end="url(#arrowhead)" />
    <text x="540" y="60" font-family="sans-serif" font-size="12" text-anchor="middle" fill="white">has-a</text>
    
    <!-- Client -->
    <rect x="400" y="350" width="100" height="40" rx="5" fill="#ef4444" />
    <text x="450" y="375" font-family="sans-serif" font-size="14" text-anchor="middle" fill="white">Client</text>
    
    <!-- Client Relationships -->
    <path d="M450 350 L665 130" stroke="#ffffff" stroke-width="2" marker-end="url(#arrowhead)" stroke-dasharray="5,5" />
    <path d="M450 350 L400 290" stroke="#ffffff" stroke-width="2" marker-end="url(#arrowhead)" stroke-dasharray="5,5" />
    <path d="M450 350 L190 290" stroke="#ffffff" stroke-width="2" marker-end="url(#arrowhead)" stroke-dasharray="5,5" />
    <path d="M450 350 L610 290" stroke="#ffffff" stroke-width="2" marker-end="url(#arrowhead)" stroke-dasharray="5,5" />
    
    <!-- Arrowhead marker -->
    <defs>
        <marker id="arrowhead" markerWidth="10" markerHeight="7" refX="9" refY="3.5" orient="auto">
            <polygon points="0 0, 10 3.5, 0 7" fill="#ffffff" />
        </marker>
    </defs>
</svg> 